<svg width="48" height="48" viewBox="0 0 48 48" fill="none" xmlns="http://www.w3.org/2000/svg">
<rect width="48" height="48" rx="12" fill="#F31260"/>
<path d="M29.1749 12.7L17.8874 16.45C10.2999 18.9875 10.2999 23.125 17.8874 25.65L21.2374 26.7625L22.3499 30.1125C24.8749 37.7 29.0249 37.7 31.5499 30.1125L35.3124 18.8375C36.9874 13.775 34.2374 11.0125 29.1749 12.7ZM29.5749 19.425L24.8249 24.2C24.6374 24.3875 24.3999 24.475 24.1624 24.475C23.9249 24.475 23.6874 24.3875 23.4999 24.2C23.1374 23.8375 23.1374 23.2375 23.4999 22.875L28.2499 18.1C28.6124 17.7375 29.2124 17.7375 29.5749 18.1C29.9374 18.4625 29.9374 19.0625 29.5749 19.425Z" fill="white"/>
</svg>
