<svg width="48" height="48" viewBox="0 0 48 48" fill="none" xmlns="http://www.w3.org/2000/svg">
<rect width="48" height="48" rx="12" fill="#F31260"/>
<path d="M29.175 12.6998L17.8875 16.4498C10.3 18.9873 10.3 23.1248 17.8875 25.6498L21.2375 26.7623L22.35 30.1123C24.875 37.6998 29.025 37.6998 31.55 30.1123L35.3125 18.8373C36.9875 13.7748 34.2375 11.0123 29.175 12.6998ZM29.575 19.4248L24.825 24.1998C24.6375 24.3873 24.4 24.4748 24.1625 24.4748C23.925 24.4748 23.6875 24.3873 23.5 24.1998C23.1375 23.8373 23.1375 23.2373 23.5 22.8748L28.25 18.0998C28.6125 17.7373 29.2125 17.7373 29.575 18.0998C29.9375 18.4623 29.9375 19.0623 29.575 19.4248Z" fill="white"/>
</svg>
