<svg width="48" height="48" viewBox="0 0 48 48" fill="none" xmlns="http://www.w3.org/2000/svg">
<rect width="48" height="48" rx="12" fill="#F31260"/>
<path d="M29.175 12.7L17.8875 16.45C10.3 18.9875 10.3 23.125 17.8875 25.65L21.2375 26.7625L22.35 30.1125C24.875 37.7 29.025 37.7 31.55 30.1125L35.3125 18.8375C36.9875 13.775 34.2375 11.0125 29.175 12.7ZM29.575 19.425L24.825 24.2C24.6375 24.3875 24.4 24.475 24.1625 24.475C23.925 24.475 23.6875 24.3875 23.5 24.2C23.1375 23.8375 23.1375 23.2375 23.5 22.875L28.25 18.1C28.6125 17.7375 29.2125 17.7375 29.575 18.1C29.9375 18.4625 29.9375 19.0625 29.575 19.425Z" fill="white"/>
</svg>
