<svg width="48" height="48" viewBox="0 0 48 48" fill="none" xmlns="http://www.w3.org/2000/svg">
<rect width="48" height="48" rx="12" fill="#F31260"/>
<path fill-rule="evenodd" clip-rule="evenodd" d="M24 18.6667C21.0544 18.6667 18.6666 21.0546 18.6666 24.0001C18.6666 26.9457 21.0544 29.3334 24 29.3334C26.9454 29.3334 29.3333 26.9457 29.3333 24.0001C29.3333 21.0546 26.9454 18.6667 24 18.6667ZM21.3333 24.0001C21.3333 22.5274 22.5272 21.3334 24 21.3334C25.4728 21.3334 26.6666 22.5274 26.6666 24.0001C26.6666 25.4729 25.4728 26.6667 24 26.6667C22.5272 26.6667 21.3333 25.4729 21.3333 24.0001Z" fill="white"/>
<path fill-rule="evenodd" clip-rule="evenodd" d="M24 18.6667C21.0544 18.6667 18.6666 21.0546 18.6666 24.0001C18.6666 26.9457 21.0544 29.3334 24 29.3334C26.9454 29.3334 29.3333 26.9457 29.3333 24.0001C29.3333 21.0546 26.9454 18.6667 24 18.6667ZM21.3333 24.0001C21.3333 22.5274 22.5272 21.3334 24 21.3334C25.4728 21.3334 26.6666 22.5274 26.6666 24.0001C26.6666 25.4729 25.4728 26.6667 24 26.6667C22.5272 26.6667 21.3333 25.4729 21.3333 24.0001Z" fill="white"/>
<path fill-rule="evenodd" clip-rule="evenodd" d="M22.3564 9.35604C22.6567 9.33303 22.9939 9.33316 23.2688 9.33327H24.7312C25.0062 9.33316 25.3434 9.33303 25.6436 9.35604C25.9986 9.38324 26.4904 9.4524 27.0179 9.69241C27.6847 9.99577 28.2554 10.4764 28.6676 11.0819C28.9939 11.5609 29.1456 12.0339 29.2328 12.379C29.3066 12.671 29.3638 13.0032 29.4103 13.2742L29.5991 14.3684L29.6028 14.3704C29.6492 14.3961 29.6954 14.422 29.7414 14.4483L29.7448 14.4502L30.994 13.9981C31.2475 13.9063 31.5591 13.7934 31.8447 13.7138C32.1828 13.6197 32.6606 13.5184 33.2288 13.5603C33.9486 13.6132 34.6404 13.8599 35.2314 14.2741C35.6979 14.6012 36.0039 14.9817 36.2062 15.2686C36.3772 15.5109 36.5471 15.7955 36.6854 16.027L37.3544 17.1466C37.5008 17.3912 37.6792 17.6894 37.817 17.9669C37.9791 18.2937 38.1771 18.7662 38.237 19.3608C38.3122 20.1095 38.1748 20.8643 37.8404 21.5385C37.5748 22.0738 37.2228 22.4462 36.9559 22.6949C36.7292 22.9059 36.4571 23.1222 36.234 23.2994L35.3334 23.9999L36.234 24.7005C36.4571 24.8778 36.7292 25.0939 36.9559 25.3051C37.2228 25.5537 37.5748 25.9261 37.8403 26.4614C38.1747 27.1355 38.3122 27.8903 38.2368 28.6391C38.1771 29.2337 37.979 29.7062 37.8168 30.033C37.6791 30.3105 37.5007 30.6087 37.3544 30.8533L36.6851 31.9731C36.547 32.2046 36.3771 32.489 36.2062 32.7313C36.0038 33.0182 35.6979 33.3987 35.2312 33.7258C34.6404 34.1401 33.9484 34.3867 33.2288 34.4397C32.6606 34.4815 32.1828 34.3802 31.8447 34.2861C31.559 34.2065 31.2474 34.0937 30.9939 34.0018L29.7447 33.5497L29.7414 33.5517C29.6954 33.5779 29.6492 33.6038 29.6028 33.6295L29.5991 33.6315L29.4103 34.7257C29.3638 34.9966 29.3066 35.3289 29.2328 35.6209C29.1456 35.9659 28.9939 36.439 28.6676 36.9181C28.2554 37.5235 27.6847 38.0042 27.0179 38.3075C26.4904 38.5475 25.9986 38.6167 25.6436 38.6439C25.3432 38.6669 25.0062 38.6667 24.7312 38.6666H23.2688C22.9939 38.6667 22.6567 38.6669 22.3564 38.6439C22.0015 38.6167 21.5096 38.5475 20.9821 38.3075C20.3153 38.0042 19.7447 37.5235 19.3324 36.9181C19.0062 36.439 18.8544 35.9659 18.7673 35.6209C18.6935 35.3289 18.6363 34.9966 18.5897 34.7257L18.4009 33.6315L18.3973 33.6295C18.3508 33.6038 18.3046 33.5779 18.2587 33.5515L18.2553 33.5497L17.0061 34.0018C16.7527 34.0935 16.4411 34.2065 16.1554 34.2861C15.8172 34.3802 15.3395 34.4814 14.7713 34.4397C14.0516 34.3867 13.3597 34.1401 12.7688 33.7258C12.3022 33.3987 11.9962 33.0182 11.7939 32.7313C11.6229 32.489 11.453 32.2045 11.3148 31.973L10.6456 30.8533C10.4993 30.6087 10.3209 30.3105 10.1832 30.033C10.021 29.7062 9.82296 29.2337 9.76318 28.6391C9.68788 27.8903 9.82534 27.1355 10.1597 26.4614C10.4253 25.9261 10.7772 25.5537 11.0441 25.3051C11.2709 25.0939 11.5429 24.8778 11.766 24.7005L12.638 24.0071V23.9929L11.766 23.2994C11.5429 23.1222 11.2708 22.9059 11.0441 22.6949C10.7772 22.4462 10.4252 22.0738 10.1597 21.5385C9.82528 20.8643 9.68783 20.1096 9.76311 19.3608C9.8229 18.7663 10.021 18.2937 10.1831 17.967C10.3209 17.6895 10.4993 17.3912 10.6456 17.1467L11.3148 16.0269C11.453 15.7955 11.6229 15.5109 11.7938 15.2686C11.9962 14.9817 12.3021 14.6012 12.7687 14.2741C13.3596 13.8599 14.0515 13.6132 14.7712 13.5603C15.3395 13.5185 15.8172 13.6197 16.1553 13.7138C16.441 13.7934 16.7526 13.9063 17.0061 13.9981L18.2553 14.4503L18.2586 14.4483C18.3046 14.4221 18.3508 14.3961 18.3973 14.3704L18.4009 14.3684L18.5897 13.2742C18.6363 13.0033 18.6935 12.671 18.7673 12.379C18.8544 12.0339 19.0062 11.5609 19.3324 11.0819C19.7447 10.4764 20.3153 9.99577 20.9821 9.69241C21.5096 9.4524 22.0015 9.38324 22.3564 9.35604ZM26.7918 13.7817C26.6814 13.1417 26.6262 12.8217 26.4635 12.5828C26.326 12.381 26.1359 12.2208 25.9136 12.1197C25.6504 11.9999 25.3258 11.9999 24.6764 11.9999H23.3236C22.6743 11.9999 22.3495 11.9999 22.0864 12.1197C21.8642 12.2208 21.674 12.381 21.5366 12.5828C21.3739 12.8217 21.3186 13.1417 21.2082 13.7817L21.0002 14.9874C20.926 15.4177 20.8889 15.6328 20.8102 15.7982C20.733 15.9605 20.6699 16.0493 20.5419 16.1755C20.4114 16.304 20.1701 16.4374 19.6874 16.7042C19.6518 16.7239 19.6164 16.7438 19.5811 16.7639C19.1195 17.0276 18.8886 17.1595 18.7172 17.2041C18.5488 17.2479 18.4439 17.257 18.2706 17.2425C18.094 17.2278 17.8963 17.1563 17.5007 17.0131L16.1493 16.524C15.5503 16.3073 15.2508 16.1989 14.9669 16.2198C14.727 16.2374 14.4964 16.3196 14.2994 16.4577C14.0663 16.6211 13.9029 16.8945 13.5761 17.4413L12.9636 18.4661C12.6186 19.0434 12.4461 19.332 12.4164 19.6276C12.3913 19.8772 12.4371 20.1288 12.5486 20.3535C12.6806 20.6197 12.9438 20.8289 13.4701 21.2475L14.4366 22.0162C14.7724 22.2831 14.9403 22.4167 15.0455 22.5598C15.1593 22.7146 15.2078 22.8151 15.2581 23.0005C15.3046 23.1719 15.3046 23.4479 15.3046 23.9999C15.3046 24.5519 15.3046 24.8279 15.2581 24.9995C15.2078 25.1849 15.1593 25.2854 15.0455 25.4401C14.9403 25.5833 14.7724 25.7167 14.4366 25.9838L13.4702 26.7523C12.9438 27.171 12.6807 27.3802 12.5486 27.6465C12.4372 27.8711 12.3914 28.1227 12.4165 28.3723C12.4462 28.6679 12.6187 28.9565 12.9637 29.5338L13.5762 30.5586C13.903 31.1054 14.0664 31.3789 14.2995 31.5422C14.4964 31.6803 14.7271 31.7625 14.967 31.7802C15.2509 31.801 15.5504 31.6926 16.1494 31.4759L17.5007 30.9869C17.8963 30.8437 18.094 30.7721 18.2706 30.7574C18.444 30.743 18.5488 30.7519 18.7172 30.7958C18.8886 30.8405 19.1195 30.9723 19.5811 31.2359C19.6164 31.2561 19.6518 31.2761 19.6874 31.2957C20.1701 31.5625 20.4114 31.6959 20.5418 31.8245C20.6699 31.9506 20.733 32.0394 20.8102 32.2018C20.8889 32.3671 20.926 32.5822 21.0002 33.0125L21.2082 34.2182C21.3186 34.8582 21.3739 35.1782 21.5366 35.4171C21.674 35.6189 21.8642 35.7791 22.0864 35.8802C22.3495 35.9999 22.6743 35.9999 23.3236 35.9999H24.6764C25.3258 35.9999 25.6504 35.9999 25.9136 35.8802C26.1359 35.7791 26.326 35.6189 26.4635 35.4171C26.6262 35.1782 26.6814 34.8582 26.7918 34.2182L26.9999 33.0125C27.074 32.5822 27.1112 32.3671 27.1898 32.2018C27.267 32.0394 27.3302 31.9506 27.4582 31.8245C27.5887 31.6959 27.83 31.5625 28.3126 31.2957C28.3482 31.2761 28.3836 31.2561 28.4188 31.2359C28.8806 30.9723 29.1114 30.8405 29.2828 30.7958C29.4512 30.7519 29.556 30.743 29.7295 30.7574C29.906 30.7721 30.1038 30.8437 30.4992 30.9869L31.8507 31.4759C32.4496 31.6927 32.7492 31.8011 33.0331 31.7802C33.273 31.7625 33.5036 31.6803 33.7006 31.5422C33.9336 31.3789 34.0971 31.1054 34.4239 30.5586L35.0364 29.5338C35.3814 28.9566 35.5539 28.6679 35.5836 28.3723C35.6087 28.1227 35.5628 27.8711 35.4514 27.6465C35.3194 27.3803 35.0562 27.171 34.5299 26.7523L33.5635 25.9838C33.2276 25.7167 33.0598 25.5833 32.9546 25.4401C32.8408 25.2854 32.7923 25.1849 32.7419 24.9995C32.6954 24.8281 32.6954 24.5519 32.6954 23.9999C32.6954 23.4479 32.6954 23.1719 32.7419 23.0005C32.7923 22.8151 32.8408 22.7146 32.9546 22.5598C33.0598 22.4167 33.2276 22.2831 33.5634 22.0162L34.5299 21.2475C35.0563 20.8289 35.3195 20.6196 35.4515 20.3535C35.563 20.1288 35.6087 19.8772 35.5836 19.6276C35.5539 19.332 35.3815 19.0434 35.0364 18.4661L34.4239 17.4413C34.0971 16.8945 33.9338 16.6211 33.7007 16.4577C33.5036 16.3196 33.2731 16.2374 33.0331 16.2197C32.7492 16.1988 32.4498 16.3072 31.8507 16.524L30.4994 17.0131C30.1038 17.1563 29.906 17.2278 29.7295 17.2425C29.556 17.257 29.4512 17.2479 29.2828 17.2041C29.1114 17.1595 28.8806 17.0276 28.419 16.7639C28.3836 16.7438 28.3482 16.7239 28.3127 16.7042C27.83 16.4374 27.5887 16.304 27.4582 16.1755C27.3302 16.0493 27.267 15.9605 27.1898 15.7982C27.1112 15.6328 27.074 15.4177 26.9999 14.9874L26.7918 13.7817Z" fill="white"/>
</svg>
