<svg width="48" height="48" viewBox="0 0 48 48" fill="none" xmlns="http://www.w3.org/2000/svg">
<rect width="48" height="48" rx="12" fill="#F31260"/>
<path fill-rule="evenodd" clip-rule="evenodd" d="M24 18.6667C21.0544 18.6667 18.6666 21.0545 18.6666 24C18.6666 26.9456 21.0544 29.3333 24 29.3333C26.9454 29.3333 29.3333 26.9456 29.3333 24C29.3333 21.0545 26.9454 18.6667 24 18.6667ZM21.3333 24C21.3333 22.5273 22.5272 21.3333 24 21.3333C25.4728 21.3333 26.6666 22.5273 26.6666 24C26.6666 25.4728 25.4728 26.6667 24 26.6667C22.5272 26.6667 21.3333 25.4728 21.3333 24Z" fill="white"/>
<path fill-rule="evenodd" clip-rule="evenodd" d="M24 18.6667C21.0544 18.6667 18.6666 21.0545 18.6666 24C18.6666 26.9456 21.0544 29.3333 24 29.3333C26.9454 29.3333 29.3333 26.9456 29.3333 24C29.3333 21.0545 26.9454 18.6667 24 18.6667ZM21.3333 24C21.3333 22.5273 22.5272 21.3333 24 21.3333C25.4728 21.3333 26.6666 22.5273 26.6666 24C26.6666 25.4728 25.4728 26.6667 24 26.6667C22.5272 26.6667 21.3333 25.4728 21.3333 24Z" fill="white"/>
<path fill-rule="evenodd" clip-rule="evenodd" d="M22.3564 9.3561C22.6567 9.33309 22.9939 9.33322 23.2688 9.33333H24.7312C25.0062 9.33322 25.3434 9.33309 25.6436 9.3561C25.9986 9.3833 26.4904 9.45246 27.0179 9.69247C27.6847 9.99583 28.2554 10.4765 28.6676 11.0819C28.9939 11.561 29.1456 12.034 29.2328 12.379C29.3066 12.6711 29.3638 13.0033 29.4103 13.2742L29.5991 14.3684L29.6028 14.3705C29.6492 14.3961 29.6954 14.4221 29.7414 14.4484L29.7448 14.4503L30.994 13.9982C31.2475 13.9064 31.5591 13.7934 31.8447 13.7139C32.1828 13.6197 32.6606 13.5185 33.2288 13.5603C33.9486 13.6133 34.6404 13.8599 35.2314 14.2742C35.6979 14.6012 36.0039 14.9818 36.2062 15.2686C36.3772 15.511 36.5471 15.7956 36.6854 16.027L37.3544 17.1467C37.5008 17.3912 37.6792 17.6895 37.817 17.967C37.9791 18.2937 38.1771 18.7663 38.237 19.3609C38.3122 20.1096 38.1748 20.8644 37.8404 21.5385C37.5748 22.0738 37.2228 22.4462 36.9559 22.6949C36.7292 22.906 36.4571 23.1222 36.234 23.2994L35.3334 24L36.234 24.7005C36.4571 24.8778 36.7292 25.094 36.9559 25.3052C37.2228 25.5537 37.5748 25.9261 37.8403 26.4614C38.1747 27.1356 38.3122 27.8904 38.2368 28.6392C38.1771 29.2337 37.979 29.7062 37.8168 30.033C37.6791 30.3105 37.5007 30.6088 37.3544 30.8533L36.6851 31.9732C36.547 32.2046 36.3771 32.489 36.2062 32.7313C36.0038 33.0182 35.6979 33.3988 35.2312 33.7258C34.6404 34.1401 33.9484 34.3868 33.2288 34.4397C32.6606 34.4816 32.1828 34.3802 31.8447 34.2861C31.559 34.2065 31.2474 34.0937 30.9939 34.0018L29.7447 33.5497L29.7414 33.5517C29.6954 33.578 29.6492 33.6038 29.6028 33.6296L29.5991 33.6316L29.4103 34.7257C29.3638 34.9966 29.3066 35.3289 29.2328 35.6209C29.1456 35.966 28.9939 36.439 28.6676 36.9181C28.2554 37.5236 27.6847 38.0042 27.0179 38.3076C26.4904 38.5476 25.9986 38.6168 25.6436 38.644C25.3432 38.6669 25.0062 38.6668 24.7312 38.6666H23.2688C22.9939 38.6668 22.6567 38.6669 22.3564 38.644C22.0015 38.6168 21.5096 38.5476 20.9821 38.3076C20.3153 38.0042 19.7447 37.5236 19.3324 36.9181C19.0062 36.439 18.8544 35.966 18.7673 35.6209C18.6935 35.3289 18.6363 34.9966 18.5897 34.7257L18.4009 33.6316L18.3973 33.6296C18.3508 33.6038 18.3046 33.578 18.2587 33.5516L18.2553 33.5497L17.0061 34.0018C16.7527 34.0936 16.4411 34.2065 16.1554 34.2861C15.8172 34.3802 15.3395 34.4814 14.7713 34.4397C14.0516 34.3868 13.3597 34.1401 12.7688 33.7258C12.3022 33.3988 11.9962 33.0182 11.7939 32.7313C11.6229 32.489 11.453 32.2045 11.3148 31.973L10.6456 30.8533C10.4993 30.6088 10.3209 30.3105 10.1832 30.033C10.021 29.7062 9.82296 29.2337 9.76318 28.6392C9.68788 27.8904 9.82534 27.1356 10.1597 26.4614C10.4253 25.9261 10.7772 25.5537 11.0441 25.3052C11.2709 25.094 11.5429 24.8778 11.766 24.7005L12.638 24.0072V23.9929L11.766 23.2994C11.5429 23.1222 11.2708 22.906 11.0441 22.6949C10.7772 22.4462 10.4252 22.0738 10.1597 21.5385C9.82528 20.8644 9.68783 20.1096 9.76311 19.3609C9.8229 18.7663 10.021 18.2937 10.1831 17.967C10.3209 17.6895 10.4993 17.3913 10.6456 17.1467L11.3148 16.027C11.453 15.7956 11.6229 15.511 11.7938 15.2687C11.9962 14.9818 12.3021 14.6013 12.7687 14.2742C13.3596 13.86 14.0515 13.6133 14.7712 13.5603C15.3395 13.5185 15.8172 13.6197 16.1553 13.7139C16.441 13.7935 16.7526 13.9064 17.0061 13.9982L18.2553 14.4503L18.2586 14.4484C18.3046 14.4221 18.3508 14.3961 18.3973 14.3705L18.4009 14.3684L18.5897 13.2743C18.6363 13.0033 18.6935 12.6711 18.7673 12.379C18.8544 12.034 19.0062 11.561 19.3324 11.0819C19.7447 10.4765 20.3153 9.99583 20.9821 9.69247C21.5096 9.45246 22.0015 9.3833 22.3564 9.3561ZM26.7918 13.7817C26.6814 13.1418 26.6262 12.8218 26.4635 12.5829C26.326 12.381 26.1359 12.2208 25.9136 12.1197C25.6504 12 25.3258 12 24.6764 12H23.3236C22.6743 12 22.3495 12 22.0864 12.1197C21.8642 12.2208 21.674 12.381 21.5366 12.5829C21.3739 12.8218 21.3186 13.1418 21.2082 13.7817L21.0002 14.9875C20.926 15.4178 20.8889 15.6329 20.8102 15.7982C20.733 15.9606 20.6699 16.0494 20.5419 16.1755C20.4114 16.304 20.1701 16.4374 19.6874 16.7043C19.6518 16.724 19.6164 16.7439 19.5811 16.764C19.1195 17.0277 18.8886 17.1595 18.7172 17.2042C18.5488 17.248 18.4439 17.257 18.2706 17.2426C18.094 17.2279 17.8963 17.1563 17.5007 17.0132L16.1493 16.5241C15.5503 16.3073 15.2508 16.1989 14.9669 16.2198C14.727 16.2375 14.4964 16.3197 14.2994 16.4578C14.0663 16.6212 13.9029 16.8946 13.5761 17.4414L12.9636 18.4662C12.6186 19.0434 12.4461 19.3321 12.4164 19.6277C12.3913 19.8773 12.4371 20.1288 12.5486 20.3536C12.6806 20.6197 12.9438 20.829 13.4701 21.2476L14.4366 22.0162C14.7724 22.2832 14.9403 22.4168 15.0455 22.5598C15.1593 22.7146 15.2078 22.8152 15.2581 23.0005C15.3046 23.172 15.3046 23.448 15.3046 24C15.3046 24.552 15.3046 24.828 15.2581 24.9996C15.2078 25.1849 15.1593 25.2854 15.0455 25.4401C14.9403 25.5833 14.7724 25.7168 14.4366 25.9838L13.4702 26.7524C12.9438 27.171 12.6807 27.3802 12.5486 27.6465C12.4372 27.8712 12.3914 28.1228 12.4165 28.3724C12.4462 28.668 12.6187 28.9565 12.9637 29.5338L13.5762 30.5586C13.903 31.1054 14.0664 31.3789 14.2995 31.5422C14.4964 31.6804 14.7271 31.7625 14.967 31.7802C15.2509 31.801 15.5504 31.6926 16.1494 31.476L17.5007 30.9869C17.8963 30.8437 18.094 30.7721 18.2706 30.7574C18.444 30.743 18.5488 30.752 18.7172 30.7958C18.8886 30.8405 19.1195 30.9724 19.5811 31.236C19.6164 31.2561 19.6518 31.2761 19.6874 31.2957C20.1701 31.5625 20.4114 31.696 20.5418 31.8245C20.6699 31.9506 20.733 32.0394 20.8102 32.2018C20.8889 32.3672 20.926 32.5822 21.0002 33.0125L21.2082 34.2182C21.3186 34.8582 21.3739 35.1782 21.5366 35.4172C21.674 35.6189 21.8642 35.7792 22.0864 35.8802C22.3495 36 22.6743 36 23.3236 36H24.6764C25.3258 36 25.6504 36 25.9136 35.8802C26.1359 35.7792 26.326 35.6189 26.4635 35.4172C26.6262 35.1782 26.6814 34.8582 26.7918 34.2182L26.9999 33.0125C27.074 32.5822 27.1112 32.3672 27.1898 32.2018C27.267 32.0394 27.3302 31.9506 27.4582 31.8245C27.5887 31.696 27.83 31.5625 28.3126 31.2957C28.3482 31.2761 28.3836 31.2561 28.4188 31.236C28.8806 30.9724 29.1114 30.8405 29.2828 30.7958C29.4512 30.752 29.556 30.743 29.7295 30.7574C29.906 30.7721 30.1038 30.8437 30.4992 30.9869L31.8507 31.476C32.4496 31.6928 32.7492 31.8012 33.0331 31.7802C33.273 31.7625 33.5036 31.6804 33.7006 31.5422C33.9336 31.3789 34.0971 31.1054 34.4239 30.5586L35.0364 29.5338C35.3814 28.9566 35.5539 28.668 35.5836 28.3724C35.6087 28.1228 35.5628 27.8712 35.4514 27.6465C35.3194 27.3804 35.0562 27.171 34.5299 26.7524L33.5635 25.9838C33.2276 25.7168 33.0598 25.5833 32.9546 25.4401C32.8408 25.2854 32.7923 25.1849 32.7419 24.9996C32.6954 24.8281 32.6954 24.552 32.6954 24C32.6954 23.448 32.6954 23.172 32.7419 23.0005C32.7923 22.8152 32.8408 22.7146 32.9546 22.5598C33.0598 22.4168 33.2276 22.2832 33.5634 22.0162L34.5299 21.2476C35.0563 20.829 35.3195 20.6197 35.4515 20.3535C35.563 20.1288 35.6087 19.8772 35.5836 19.6277C35.5539 19.3321 35.3815 19.0434 35.0364 18.4662L34.4239 17.4413C34.0971 16.8946 33.9338 16.6212 33.7007 16.4577C33.5036 16.3197 33.2731 16.2374 33.0331 16.2198C32.7492 16.1989 32.4498 16.3073 31.8507 16.5241L30.4994 17.0132C30.1038 17.1563 29.906 17.2279 29.7295 17.2426C29.556 17.257 29.4512 17.248 29.2828 17.2042C29.1114 17.1595 28.8806 17.0277 28.419 16.764C28.3836 16.7439 28.3482 16.724 28.3127 16.7043C27.83 16.4374 27.5887 16.304 27.4582 16.1755C27.3302 16.0494 27.267 15.9606 27.1898 15.7982C27.1112 15.6329 27.074 15.4177 26.9999 14.9875L26.7918 13.7817Z" fill="white"/>
</svg>
