<svg width="48" height="48" viewBox="0 0 48 48" fill="none" xmlns="http://www.w3.org/2000/svg">
<rect width="48" height="48" rx="12" fill="#F31260"/>
<path fill-rule="evenodd" clip-rule="evenodd" d="M24 18.6665C21.0544 18.6665 18.6666 21.0543 18.6666 23.9998C18.6666 26.9454 21.0544 29.3331 24 29.3331C26.9454 29.3331 29.3333 26.9454 29.3333 23.9998C29.3333 21.0543 26.9454 18.6665 24 18.6665ZM21.3333 23.9998C21.3333 22.5271 22.5272 21.3331 24 21.3331C25.4728 21.3331 26.6666 22.5271 26.6666 23.9998C26.6666 25.4726 25.4728 26.6665 24 26.6665C22.5272 26.6665 21.3333 25.4726 21.3333 23.9998Z" fill="white"/>
<path fill-rule="evenodd" clip-rule="evenodd" d="M24 18.6665C21.0544 18.6665 18.6666 21.0543 18.6666 23.9998C18.6666 26.9454 21.0544 29.3331 24 29.3331C26.9454 29.3331 29.3333 26.9454 29.3333 23.9998C29.3333 21.0543 26.9454 18.6665 24 18.6665ZM21.3333 23.9998C21.3333 22.5271 22.5272 21.3331 24 21.3331C25.4728 21.3331 26.6666 22.5271 26.6666 23.9998C26.6666 25.4726 25.4728 26.6665 24 26.6665C22.5272 26.6665 21.3333 25.4726 21.3333 23.9998Z" fill="white"/>
<path fill-rule="evenodd" clip-rule="evenodd" d="M22.3564 9.35628C22.6567 9.33327 22.9939 9.3334 23.2688 9.33351H24.7312C25.0062 9.3334 25.3434 9.33327 25.6436 9.35628C25.9986 9.38348 26.4904 9.45264 27.0179 9.69266C27.6847 9.99602 28.2554 10.4766 28.6676 11.0821C28.9939 11.5612 29.1456 12.0342 29.2328 12.3792C29.3066 12.6713 29.3638 13.0035 29.4103 13.2744L29.5991 14.3686L29.6028 14.3707C29.6492 14.3963 29.6954 14.4223 29.7414 14.4486L29.7448 14.4505L30.994 13.9984C31.2475 13.9065 31.5591 13.7936 31.8447 13.7141C32.1828 13.6199 32.6606 13.5187 33.2288 13.5605C33.9486 13.6135 34.6404 13.8601 35.2314 14.2743C35.6979 14.6014 36.0039 14.982 36.2062 15.2688C36.3772 15.5112 36.5471 15.7958 36.6854 16.0272L37.3544 17.1469C37.5008 17.3914 37.6792 17.6897 37.817 17.9672C37.9791 18.2939 38.1771 18.7665 38.237 19.3611C38.3122 20.1098 38.1748 20.8646 37.8404 21.5387C37.5748 22.074 37.2228 22.4464 36.9559 22.6951C36.7292 22.9062 36.4571 23.1224 36.234 23.2996L35.3334 24.0002L36.234 24.7007C36.4571 24.878 36.7292 25.0942 36.9559 25.3054C37.2228 25.5539 37.5748 25.9263 37.8403 26.4616C38.1747 27.1358 38.3122 27.8906 38.2368 28.6394C38.1771 29.2339 37.979 29.7064 37.8168 30.0332C37.6791 30.3107 37.5007 30.609 37.3544 30.8535L36.6851 31.9734C36.547 32.2048 36.3771 32.4892 36.2062 32.7315C36.0038 33.0184 35.6979 33.399 35.2312 33.726C34.6404 34.1403 33.9484 34.387 33.2288 34.4399C32.6606 34.4818 32.1828 34.3804 31.8447 34.2863C31.559 34.2067 31.2474 34.0939 30.9939 34.002L29.7447 33.5499L29.7414 33.5519C29.6954 33.5782 29.6492 33.604 29.6028 33.6298L29.5991 33.6318L29.4103 34.7259C29.3638 34.9968 29.3066 35.3291 29.2328 35.6211C29.1456 35.9662 28.9939 36.4392 28.6676 36.9183C28.2554 37.5238 27.6847 38.0044 27.0179 38.3078C26.4904 38.5478 25.9986 38.617 25.6436 38.6442C25.3432 38.6671 25.0062 38.667 24.7312 38.6668H23.2688C22.9939 38.667 22.6567 38.6671 22.3564 38.6442C22.0015 38.617 21.5096 38.5478 20.9821 38.3078C20.3153 38.0044 19.7447 37.5238 19.3324 36.9183C19.0062 36.4392 18.8544 35.9662 18.7673 35.6211C18.6935 35.3291 18.6363 34.9968 18.5897 34.7259L18.4009 33.6318L18.3973 33.6298C18.3508 33.604 18.3046 33.5782 18.2587 33.5518L18.2553 33.5499L17.0061 34.002C16.7527 34.0938 16.4411 34.2067 16.1554 34.2863C15.8172 34.3804 15.3395 34.4816 14.7713 34.4399C14.0516 34.387 13.3597 34.1403 12.7688 33.726C12.3022 33.399 11.9962 33.0184 11.7939 32.7315C11.6229 32.4892 11.453 32.2047 11.3148 31.9732L10.6456 30.8535C10.4993 30.609 10.3209 30.3107 10.1832 30.0332C10.021 29.7064 9.82296 29.2339 9.76318 28.6394C9.68788 27.8906 9.82534 27.1358 10.1597 26.4616C10.4253 25.9263 10.7772 25.5539 11.0441 25.3054C11.2709 25.0942 11.5429 24.878 11.766 24.7007L12.638 24.0074V23.9931L11.766 23.2996C11.5429 23.1224 11.2708 22.9062 11.0441 22.6951C10.7772 22.4464 10.4252 22.074 10.1597 21.5387C9.82528 20.8646 9.68783 20.1098 9.76311 19.3611C9.8229 18.7665 10.021 18.2939 10.1831 17.9672C10.3209 17.6897 10.4993 17.3915 10.6456 17.1469L11.3148 16.0272C11.453 15.7958 11.6229 15.5112 11.7938 15.2688C11.9962 14.982 12.3021 14.6014 12.7687 14.2744C13.3596 13.8601 14.0515 13.6135 14.7712 13.5605C15.3395 13.5187 15.8172 13.6199 16.1553 13.7141C16.441 13.7936 16.7526 13.9066 17.0061 13.9984L18.2553 14.4505L18.2586 14.4486C18.3046 14.4223 18.3508 14.3963 18.3973 14.3707L18.4009 14.3686L18.5897 13.2744C18.6363 13.0035 18.6935 12.6713 18.7673 12.3792C18.8544 12.0342 19.0062 11.5612 19.3324 11.0821C19.7447 10.4766 20.3153 9.99602 20.9821 9.69266C21.5096 9.45264 22.0015 9.38348 22.3564 9.35628ZM26.7918 13.7819C26.6814 13.142 26.6262 12.822 26.4635 12.5831C26.326 12.3812 26.1359 12.221 25.9136 12.1199C25.6504 12.0002 25.3258 12.0002 24.6764 12.0002H23.3236C22.6743 12.0002 22.3495 12.0002 22.0864 12.1199C21.8642 12.221 21.674 12.3812 21.5366 12.5831C21.3739 12.822 21.3186 13.142 21.2082 13.7819L21.0002 14.9877C20.926 15.4179 20.8889 15.6331 20.8102 15.7984C20.733 15.9608 20.6699 16.0495 20.5419 16.1757C20.4114 16.3042 20.1701 16.4376 19.6874 16.7045C19.6518 16.7241 19.6164 16.744 19.5811 16.7642C19.1195 17.0279 18.8886 17.1597 18.7172 17.2044C18.5488 17.2482 18.4439 17.2572 18.2706 17.2428C18.094 17.2281 17.8963 17.1565 17.5007 17.0134L16.1493 16.5243C15.5503 16.3075 15.2508 16.1991 14.9669 16.22C14.727 16.2376 14.4964 16.3199 14.2994 16.4579C14.0663 16.6214 13.9029 16.8948 13.5761 17.4415L12.9636 18.4664C12.6186 19.0436 12.4461 19.3323 12.4164 19.6279C12.3913 19.8774 12.4371 20.129 12.5486 20.3538C12.6806 20.6199 12.9438 20.8292 13.4701 21.2478L14.4366 22.0164C14.7724 22.2834 14.9403 22.417 15.0455 22.56C15.1593 22.7148 15.2078 22.8154 15.2581 23.0007C15.3046 23.1722 15.3046 23.4482 15.3046 24.0002C15.3046 24.5522 15.3046 24.8282 15.2581 24.9998C15.2078 25.1851 15.1593 25.2856 15.0455 25.4403C14.9403 25.5835 14.7724 25.717 14.4366 25.984L13.4702 26.7526C12.9438 27.1712 12.6807 27.3804 12.5486 27.6467C12.4372 27.8714 12.3914 28.123 12.4165 28.3726C12.4462 28.6682 12.6187 28.9567 12.9637 29.534L13.5762 30.5588C13.903 31.1056 14.0664 31.3791 14.2995 31.5424C14.4964 31.6806 14.7271 31.7627 14.967 31.7804C15.2509 31.8012 15.5504 31.6928 16.1494 31.4762L17.5007 30.9871C17.8963 30.8439 18.094 30.7723 18.2706 30.7576C18.444 30.7432 18.5488 30.7522 18.7172 30.796C18.8886 30.8407 19.1195 30.9726 19.5811 31.2362C19.6164 31.2563 19.6518 31.2763 19.6874 31.2959C20.1701 31.5627 20.4114 31.6962 20.5418 31.8247C20.6699 31.9508 20.733 32.0396 20.8102 32.202C20.8889 32.3674 20.926 32.5824 21.0002 33.0127L21.2082 34.2184C21.3186 34.8584 21.3739 35.1784 21.5366 35.4174C21.674 35.6191 21.8642 35.7794 22.0864 35.8804C22.3495 36.0002 22.6743 36.0002 23.3236 36.0002H24.6764C25.3258 36.0002 25.6504 36.0002 25.9136 35.8804C26.1359 35.7794 26.326 35.6191 26.4635 35.4174C26.6262 35.1784 26.6814 34.8584 26.7918 34.2184L26.9999 33.0127C27.074 32.5824 27.1112 32.3674 27.1898 32.202C27.267 32.0396 27.3302 31.9508 27.4582 31.8247C27.5887 31.6962 27.83 31.5627 28.3126 31.2959C28.3482 31.2763 28.3836 31.2563 28.4188 31.2362C28.8806 30.9726 29.1114 30.8407 29.2828 30.796C29.4512 30.7522 29.556 30.7432 29.7295 30.7576C29.906 30.7723 30.1038 30.8439 30.4992 30.9871L31.8507 31.4762C32.4496 31.693 32.7492 31.8014 33.0331 31.7804C33.273 31.7627 33.5036 31.6806 33.7006 31.5424C33.9336 31.3791 34.0971 31.1056 34.4239 30.5588L35.0364 29.534C35.3814 28.9568 35.5539 28.6682 35.5836 28.3726C35.6087 28.123 35.5628 27.8714 35.4514 27.6467C35.3194 27.3806 35.0562 27.1712 34.5299 26.7526L33.5635 25.984C33.2276 25.717 33.0598 25.5835 32.9546 25.4403C32.8408 25.2856 32.7923 25.1851 32.7419 24.9998C32.6954 24.8283 32.6954 24.5522 32.6954 24.0002C32.6954 23.4482 32.6954 23.1722 32.7419 23.0007C32.7923 22.8154 32.8408 22.7148 32.9546 22.56C33.0598 22.417 33.2276 22.2834 33.5634 22.0164L34.5299 21.2478C35.0563 20.8292 35.3195 20.6199 35.4515 20.3537C35.563 20.129 35.6087 19.8774 35.5836 19.6278C35.5539 19.3322 35.3815 19.0436 35.0364 18.4663L34.4239 17.4415C34.0971 16.8947 33.9338 16.6213 33.7007 16.4579C33.5036 16.3199 33.2731 16.2376 33.0331 16.22C32.7492 16.1991 32.4498 16.3075 31.8507 16.5243L30.4994 17.0134C30.1038 17.1565 29.906 17.2281 29.7295 17.2428C29.556 17.2572 29.4512 17.2482 29.2828 17.2043C29.1114 17.1597 28.8806 17.0279 28.419 16.7642C28.3836 16.744 28.3482 16.7241 28.3127 16.7045C27.83 16.4376 27.5887 16.3042 27.4582 16.1757C27.3302 16.0495 27.267 15.9608 27.1898 15.7984C27.1112 15.6331 27.074 15.4179 26.9999 14.9877L26.7918 13.7819Z" fill="white"/>
</svg>
