<svg width="41" height="40" viewBox="0 0 41 40" fill="none" xmlns="http://www.w3.org/2000/svg">
<path d="M34.4937 32.6063C34.0552 33.0417 33.4622 33.2861 32.8442 33.2861C32.2262 33.2861 31.6333 33.0417 31.1947 32.6063L24.0474 25.4589C21.6218 27.0661 18.6857 27.715 15.8087 27.2797C12.9317 26.8445 10.319 25.356 8.47742 23.1032C6.63586 20.8504 5.69677 17.9938 5.84235 15.0877C5.98793 12.1817 7.2078 9.43325 9.26529 7.37576C11.3228 5.31827 14.0712 4.0984 16.9773 3.95282C19.8834 3.80724 22.7399 4.74633 24.9927 6.5879C27.2455 8.42946 28.734 11.0422 29.1693 13.9192C29.6045 16.7962 28.9556 19.7323 27.3484 22.1579L34.4937 29.3052C34.9298 29.7439 35.1745 30.3372 35.1745 30.9558C35.1745 31.5743 34.9298 32.1676 34.4937 32.6063ZM21.1021 24.3894C23.2801 23.5092 25.052 21.8492 26.0723 19.7332C27.0926 17.6172 27.2881 15.197 26.6206 12.9448C25.9531 10.6925 24.4706 8.76959 22.4621 7.5512C20.4537 6.33281 18.0634 5.9063 15.7575 6.35486C13.4516 6.80342 11.3955 8.09488 9.99022 9.97732C8.58496 11.8598 7.93134 14.1982 8.15684 16.5365C8.38235 18.8747 9.47082 21.0451 11.2099 22.6243C12.949 24.2035 15.2141 25.0782 17.5632 25.0779C18.7756 25.0798 19.9789 24.846 21.1021 24.3894Z" fill="white"/>
</svg>
