<svg width="48" height="48" viewBox="0 0 48 48" fill="none" xmlns="http://www.w3.org/2000/svg">
<rect width="48" height="48" rx="12" fill="#8A0D39"/>
<path d="M29.175 12.7001L17.8875 16.4501C10.3 18.9876 10.3 23.1251 17.8875 25.6501L21.2375 26.7626L22.35 30.1126C24.875 37.7001 29.025 37.7001 31.55 30.1126L35.3125 18.8376C36.9875 13.7751 34.2375 11.0126 29.175 12.7001ZM29.575 19.4251L24.825 24.2001C24.6375 24.3876 24.4 24.4751 24.1625 24.4751C23.925 24.4751 23.6875 24.3876 23.5 24.2001C23.1375 23.8376 23.1375 23.2376 23.5 22.8751L28.25 18.1001C28.6125 17.7376 29.2125 17.7376 29.575 18.1001C29.9375 18.4626 29.9375 19.0626 29.575 19.4251Z" fill="white"/>
</svg>
