<svg width="36" height="36" viewBox="0 0 36 36" fill="none" xmlns="http://www.w3.org/2000/svg">
<mask id="path-1-inside-1_102_1775" fill="white">
<path fill-rule="evenodd" clip-rule="evenodd" d="M13.3909 25.6781L7.51531 29.2361C6.98047 29.4855 6.49923 28.9692 6.74861 28.4683L10.3055 22.5883L13.3909 25.6781ZM23.7302 8.39906L27.5988 12.2162L15.305 24.5177C13.8656 23.0761 11.8717 21.0811 11.4637 20.6731L23.7302 8.39906ZM27.5988 4.52828C28.0231 4.10281 28.7111 4.10281 29.1366 4.52828L31.4411 6.83391C31.8655 7.25938 31.8655 7.94734 31.4411 8.37172L29.1366 10.6784L25.3489 6.77812L27.5988 4.52828ZM9.3703 20.2619L4.66718 29.783C4.27234 30.8559 5.12986 31.8163 6.20173 31.3186L15.7162 26.6122C16.1264 26.5323 16.5245 26.3727 16.8417 26.0555L33.7456 9.13953C34.5944 8.29188 34.5944 6.91375 33.7456 6.065L29.9043 2.22047C29.0545 1.37172 27.6797 1.37172 26.8309 2.22047L9.92705 19.1353C9.60877 19.4536 9.45123 19.8517 9.3703 20.2619ZM33.3125 13.625V31.125C33.3125 32.327 32.1247 33.3256 30.9249 33.3256H4.84656C3.64672 33.3256 2.67328 32.3522 2.67328 31.1502V5.05547C2.67328 3.85344 3.67406 2.6875 4.875 2.6875H22.375V0.5H4.875C2.47531 0.5 0.5 2.65359 0.5 5.05547V31.1502C0.5 33.5531 2.44578 35.5 4.84656 35.5H30.9249C33.3256 35.5 35.5 33.5269 35.5 31.125V13.625H33.3125Z"/>
</mask>
<path fill-rule="evenodd" clip-rule="evenodd" d="M13.3909 25.6781L7.51531 29.2361C6.98047 29.4855 6.49923 28.9692 6.74861 28.4683L10.3055 22.5883L13.3909 25.6781ZM23.7302 8.39906L27.5988 12.2162L15.305 24.5177C13.8656 23.0761 11.8717 21.0811 11.4637 20.6731L23.7302 8.39906ZM27.5988 4.52828C28.0231 4.10281 28.7111 4.10281 29.1366 4.52828L31.4411 6.83391C31.8655 7.25938 31.8655 7.94734 31.4411 8.37172L29.1366 10.6784L25.3489 6.77812L27.5988 4.52828ZM9.3703 20.2619L4.66718 29.783C4.27234 30.8559 5.12986 31.8163 6.20173 31.3186L15.7162 26.6122C16.1264 26.5323 16.5245 26.3727 16.8417 26.0555L33.7456 9.13953C34.5944 8.29188 34.5944 6.91375 33.7456 6.065L29.9043 2.22047C29.0545 1.37172 27.6797 1.37172 26.8309 2.22047L9.92705 19.1353C9.60877 19.4536 9.45123 19.8517 9.3703 20.2619ZM33.3125 13.625V31.125C33.3125 32.327 32.1247 33.3256 30.9249 33.3256H4.84656C3.64672 33.3256 2.67328 32.3522 2.67328 31.1502V5.05547C2.67328 3.85344 3.67406 2.6875 4.875 2.6875H22.375V0.5H4.875C2.47531 0.5 0.5 2.65359 0.5 5.05547V31.1502C0.5 33.5531 2.44578 35.5 4.84656 35.5H30.9249C33.3256 35.5 35.5 33.5269 35.5 31.125V13.625H33.3125Z" fill="white"/>
<path d="M13.3909 25.6781L29.9663 53.0507L64.8522 31.9256L36.0344 3.06679L13.3909 25.6781ZM7.51531 29.2361L21.0379 58.2385L22.6084 57.5062L24.0907 56.6087L7.51531 29.2361ZM6.74861 28.4683L-20.6316 11.9056L-21.3121 13.0305L-21.898 14.2075L6.74861 28.4683ZM10.3055 22.5883L32.949 -0.0230472L4.07517 -28.9379L-17.0747 6.0256L10.3055 22.5883ZM23.7302 8.39906L46.2058 -14.3792L23.5723 -36.7119L1.09572 -14.2213L23.7302 8.39906ZM27.5988 12.2162L50.2332 34.8366L72.9983 12.0574L50.0744 -10.562L27.5988 12.2162ZM15.305 24.5177L-7.33958 47.1279L15.2949 69.7967L37.9395 47.138L15.305 24.5177ZM11.4637 20.6731L-11.1707 -1.94726L-33.7841 20.6802L-11.1637 43.3005L11.4637 20.6731ZM27.5988 4.52828L50.2261 27.1557L50.2407 27.1412L50.2553 27.1266L27.5988 4.52828ZM29.1366 4.52828L51.7694 -18.0937L51.764 -18.0991L29.1366 4.52828ZM31.4411 6.83391L54.0976 -15.7644L54.0858 -15.7762L54.0739 -15.7881L31.4411 6.83391ZM31.4411 8.37172L8.81368 -14.2557L8.80829 -14.2503L8.80291 -14.2449L31.4411 8.37172ZM29.1366 10.6784L6.18008 32.9719L28.8134 56.2783L51.7748 33.2951L29.1366 10.6784ZM25.3489 6.77812L2.72152 -15.8493L-19.5769 6.44897L2.39241 29.0716L25.3489 6.77812ZM9.3703 20.2619L38.0609 34.4341L39.9424 30.6251L40.7649 26.4571L9.3703 20.2619ZM4.66718 29.783L-24.0234 15.6108L-24.7766 17.1356L-25.364 18.7318L4.66718 29.783ZM6.20173 31.3186L19.6773 60.3429L20.0357 60.1765L20.3898 60.0013L6.20173 31.3186ZM15.7162 26.6122L9.60168 -4.7982L5.38169 -3.9767L1.52815 -2.07053L15.7162 26.6122ZM16.8417 26.0555L39.4691 48.6829L39.4771 48.6748L16.8417 26.0555ZM33.7456 9.13953L11.1328 -13.5025L11.1215 -13.4912L11.1102 -13.4798L33.7456 9.13953ZM33.7456 6.065L11.1086 28.6828L11.1182 28.6924L33.7456 6.065ZM29.9043 2.22047L52.5413 -20.3974L52.5293 -20.4094L52.5172 -20.4215L29.9043 2.22047ZM26.8309 2.22047L4.20349 -20.407L4.19614 -20.3996L26.8309 2.22047ZM9.92705 19.1353L32.5545 41.7627L32.5618 41.7554L9.92705 19.1353ZM33.3125 13.625V-18.375H1.3125V13.625H33.3125ZM22.375 2.6875V34.6875H54.375V2.6875H22.375ZM22.375 0.5H54.375V-31.5H22.375V0.5ZM35.5 13.625H67.5V-18.375H35.5V13.625ZM-3.18443 -1.69443L-9.06006 1.86354L24.0907 56.6087L29.9663 53.0507L-3.18443 -1.69443ZM-6.00728 0.233692C5.97745 -5.35428 20.3792 -2.84771 29.7858 6.83125C38.9464 16.257 41.4213 30.624 35.3953 42.7291L-21.898 14.2075C-28.1735 26.8135 -25.5826 41.6891 -16.11 51.4359C-6.39141 61.4358 8.51834 64.0758 21.0379 58.2385L-6.00728 0.233692ZM34.1289 45.031L37.6857 39.151L-17.0747 6.0256L-20.6316 11.9056L34.1289 45.031ZM-12.338 45.1996L-9.25255 48.2894L36.0344 3.06679L32.949 -0.0230472L-12.338 45.1996ZM1.25457 31.1773L5.12315 34.9945L50.0744 -10.562L46.2058 -14.3792L1.25457 31.1773ZM4.96428 -10.4041L-7.32946 1.8973L37.9395 47.138L50.2332 34.8366L4.96428 -10.4041ZM37.9496 1.90743C36.5042 0.459849 34.5046 -1.54089 34.0912 -1.95429L-11.1637 43.3005C-10.7611 43.7031 -8.77295 45.6923 -7.33958 47.1279L37.9496 1.90743ZM34.0982 43.2935L46.3646 31.0194L1.09572 -14.2213L-11.1707 -1.94726L34.0982 43.2935ZM50.2553 27.1266C38.1602 39.2528 18.5644 39.2109 6.50915 27.1557L51.764 -18.0991C38.8578 -31.0053 17.8861 -31.0472 4.94223 -18.07L50.2553 27.1266ZM6.50375 27.1503L8.80827 29.4559L54.0739 -15.7881L51.7694 -18.0937L6.50375 27.1503ZM8.78458 29.4322C-3.23296 17.3837 -3.27478 -2.16724 8.81368 -14.2557L54.0685 30.9991C67.0057 18.0619 66.9639 -2.86492 54.0976 -15.7644L8.78458 29.4322ZM8.80291 -14.2449L6.49839 -11.9382L51.7748 33.2951L54.0793 30.9884L8.80291 -14.2449ZM52.0931 -11.615L48.3054 -15.5154L2.39241 29.0716L6.18008 32.9719L52.0931 -11.615ZM47.9763 29.4056L50.2261 27.1557L4.97138 -18.0992L2.72152 -15.8493L47.9763 29.4056ZM-19.3203 6.08967L-24.0234 15.6108L33.3577 43.9552L38.0609 34.4341L-19.3203 6.08967ZM-25.364 18.7318C-29.2678 29.3401 -27.9712 43.1053 -18.2186 53.2813C-7.60338 64.3575 7.8812 65.8196 19.6773 60.3429L-7.27383 2.29431C3.45039 -2.68479 17.9703 -1.454 27.9875 8.99819C37.142 18.5503 38.2073 31.2988 34.6983 40.8342L-25.364 18.7318ZM20.3898 60.0013L29.9043 55.2949L1.52815 -2.07053L-7.98635 2.63588L20.3898 60.0013ZM21.8308 58.0226C26.1653 57.1788 33.2162 54.9358 39.4691 48.6829L-5.78572 3.42805C-0.167145 -2.19053 6.08745 -4.11409 9.60168 -4.7982L21.8308 58.0226ZM39.4771 48.6748L56.3811 31.7589L11.1102 -13.4798L-5.79375 3.43608L39.4771 48.6748ZM56.3584 31.7815C69.7315 18.4257 69.7105 -3.22496 56.373 -16.5624L11.1182 28.6924C-0.52176 17.0525 -0.542752 -1.84196 11.1328 -13.5025L56.3584 31.7815ZM56.3826 -16.5528L52.5413 -20.3974L7.26735 24.8383L11.1086 28.6828L56.3826 -16.5528ZM52.5172 -20.4215C39.182 -33.7396 17.5571 -33.7605 4.20349 -20.4069L49.4583 24.8479C37.8023 36.504 18.927 36.483 7.2915 24.8624L52.5172 -20.4215ZM4.19614 -20.3996L-12.7077 -3.48475L32.5618 41.7554L49.4657 24.8405L4.19614 -20.3996ZM-12.7004 -3.4921C-19.0044 2.81198 -21.2019 9.89933 -22.0243 14.0667L40.7649 26.4571C40.1044 29.8041 38.222 36.0952 32.5545 41.7627L-12.7004 -3.4921ZM1.3125 13.625V31.125H65.3125V13.625H1.3125ZM1.3125 31.125C1.3125 20.8591 6.32848 13.2152 11.2307 8.82879C16.0714 4.49743 22.9066 1.32562 30.9249 1.32562V65.3256C40.143 65.3256 48.172 61.6545 53.9066 56.5233C59.7026 51.3372 65.3125 42.593 65.3125 31.125H1.3125ZM30.9249 1.32562H4.84656V65.3256H30.9249V1.32562ZM4.84656 1.32562C21.3406 1.32562 34.6733 14.6999 34.6733 31.1502H-29.3267C-29.3267 50.0045 -14.0472 65.3256 4.84656 65.3256V1.32562ZM34.6733 31.1502V5.05547H-29.3267V31.1502H34.6733ZM34.6733 5.05547C34.6733 13.1252 31.4597 20.0272 27.0357 24.909C22.5568 29.8514 14.9358 34.6875 4.875 34.6875V-29.3125C-16.8911 -29.3125 -29.3267 -10.7819 -29.3267 5.05547H34.6733ZM4.875 34.6875H22.375V-29.3125H4.875V34.6875ZM54.375 2.6875V0.5H-9.625V2.6875H54.375ZM22.375 -31.5H4.875V32.5H22.375V-31.5ZM4.875 -31.5C-16.832 -31.5 -31.5 -13.3398 -31.5 5.05547H32.5C32.5 18.647 21.7826 32.5 4.875 32.5V-31.5ZM-31.5 5.05547V31.1502H32.5V5.05547H-31.5ZM-31.5 31.1502C-31.5 51.2053 -15.2483 67.5 4.84656 67.5V3.5C20.1398 3.5 32.5 15.901 32.5 31.1502H-31.5ZM4.84656 67.5H30.9249V3.5H4.84656V67.5ZM30.9249 67.5C49.1222 67.5 67.5 53.0199 67.5 31.125H3.5C3.5 14.0339 17.5291 3.5 30.9249 3.5V67.5ZM67.5 31.125V13.625H3.5V31.125H67.5ZM35.5 -18.375H33.3125V45.625H35.5V-18.375Z" fill="white" mask="url(#path-1-inside-1_102_1775)"/>
</svg>
