<svg width="56" height="56" viewBox="0 0 56 56" fill="none" xmlns="http://www.w3.org/2000/svg">
<g filter="url(#filter0_dd_102_11285)">
<rect x="12" y="2" width="32" height="32" rx="8" fill="#006FEE"/>
<path d="M32.14 8.96004L23.11 11.96C17.04 13.99 17.04 17.3 23.11 19.32L25.79 20.21L26.68 22.89C28.7 28.96 32.02 28.96 34.04 22.89L37.05 13.87C38.39 9.82004 36.19 7.61004 32.14 8.96004ZM32.46 14.34L28.66 18.16C28.51 18.31 28.32 18.38 28.13 18.38C27.94 18.38 27.75 18.31 27.6 18.16C27.31 17.87 27.31 17.39 27.6 17.1L31.4 13.28C31.69 12.99 32.17 12.99 32.46 13.28C32.75 13.57 32.75 14.05 32.46 14.34Z" fill="white"/>
</g>
<defs>
<filter id="filter0_dd_102_11285" x="0" y="0" width="56" height="56" filterUnits="userSpaceOnUse" color-interpolation-filters="sRGB">
<feFlood flood-opacity="0" result="BackgroundImageFix"/>
<feColorMatrix in="SourceAlpha" type="matrix" values="0 0 0 0 0 0 0 0 0 0 0 0 0 0 0 0 0 0 127 0" result="hardAlpha"/>
<feMorphology radius="2" operator="erode" in="SourceAlpha" result="effect1_dropShadow_102_11285"/>
<feOffset dy="4"/>
<feGaussianBlur stdDeviation="3"/>
<feColorMatrix type="matrix" values="0 0 0 0 0 0 0 0 0 0 0 0 0 0 0 0 0 0 0.05 0"/>
<feBlend mode="normal" in2="BackgroundImageFix" result="effect1_dropShadow_102_11285"/>
<feColorMatrix in="SourceAlpha" type="matrix" values="0 0 0 0 0 0 0 0 0 0 0 0 0 0 0 0 0 0 127 0" result="hardAlpha"/>
<feMorphology radius="3" operator="erode" in="SourceAlpha" result="effect2_dropShadow_102_11285"/>
<feOffset dy="10"/>
<feGaussianBlur stdDeviation="7.5"/>
<feColorMatrix type="matrix" values="0 0 0 0 0 0 0 0 0 0.439216 0 0 0 0 0.952941 0 0 0 0.4 0"/>
<feBlend mode="normal" in2="effect1_dropShadow_102_11285" result="effect2_dropShadow_102_11285"/>
<feBlend mode="normal" in="SourceGraphic" in2="effect2_dropShadow_102_11285" result="shape"/>
</filter>
</defs>
</svg>
