<svg width="48" height="48" viewBox="0 0 48 48" fill="none" xmlns="http://www.w3.org/2000/svg">
<rect width="48" height="48" rx="12" fill="#F31260"/>
<path fill-rule="evenodd" clip-rule="evenodd" d="M24.0001 18.6667C21.0546 18.6667 18.6667 21.0545 18.6667 24C18.6667 26.9456 21.0546 29.3333 24.0001 29.3333C26.9456 29.3333 29.3334 26.9456 29.3334 24C29.3334 21.0545 26.9456 18.6667 24.0001 18.6667ZM21.3334 24C21.3334 22.5273 22.5273 21.3333 24.0001 21.3333C25.4729 21.3333 26.6668 22.5273 26.6668 24C26.6668 25.4728 25.4729 26.6667 24.0001 26.6667C22.5273 26.6667 21.3334 25.4728 21.3334 24Z" fill="white"/>
<path fill-rule="evenodd" clip-rule="evenodd" d="M24.0001 18.6667C21.0546 18.6667 18.6667 21.0545 18.6667 24C18.6667 26.9456 21.0546 29.3333 24.0001 29.3333C26.9456 29.3333 29.3334 26.9456 29.3334 24C29.3334 21.0545 26.9456 18.6667 24.0001 18.6667ZM21.3334 24C21.3334 22.5273 22.5273 21.3333 24.0001 21.3333C25.4729 21.3333 26.6668 22.5273 26.6668 24C26.6668 25.4728 25.4729 26.6667 24.0001 26.6667C22.5273 26.6667 21.3334 25.4728 21.3334 24Z" fill="white"/>
<path fill-rule="evenodd" clip-rule="evenodd" d="M22.3563 9.3561C22.6566 9.33309 22.9938 9.33322 23.2687 9.33333H24.7311C25.0061 9.33322 25.3433 9.33309 25.6435 9.3561C25.9985 9.3833 26.4903 9.45246 27.0178 9.69247C27.6846 9.99583 28.2553 10.4765 28.6675 11.0819C28.9938 11.561 29.1455 12.034 29.2327 12.379C29.3065 12.6711 29.3637 13.0033 29.4102 13.2742L29.599 14.3684L29.6027 14.3705C29.6491 14.3961 29.6953 14.4221 29.7413 14.4484L29.7447 14.4503L30.9939 13.9982C31.2474 13.9064 31.559 13.7934 31.8446 13.7139C32.1827 13.6197 32.6605 13.5185 33.2287 13.5603C33.9485 13.6133 34.6403 13.8599 35.2313 14.2742C35.6978 14.6012 36.0038 14.9818 36.2061 15.2686C36.3771 15.511 36.547 15.7956 36.6853 16.027L37.3543 17.1467C37.5007 17.3912 37.6791 17.6895 37.8169 17.967C37.979 18.2937 38.177 18.7663 38.2369 19.3609C38.3121 20.1096 38.1747 20.8644 37.8403 21.5385C37.5747 22.0738 37.2227 22.4462 36.9558 22.6949C36.7291 22.906 36.457 23.1222 36.2339 23.2994L35.3333 24L36.2339 24.7005C36.457 24.8778 36.7291 25.094 36.9558 25.3052C37.2227 25.5537 37.5747 25.9261 37.8402 26.4614C38.1746 27.1356 38.3121 27.8904 38.2367 28.6392C38.177 29.2337 37.9789 29.7062 37.8167 30.033C37.679 30.3105 37.5006 30.6088 37.3543 30.8533L36.685 31.9732C36.5469 32.2046 36.377 32.489 36.2061 32.7313C36.0037 33.0182 35.6978 33.3988 35.2311 33.7258C34.6403 34.1401 33.9483 34.3868 33.2287 34.4397C32.6605 34.4816 32.1827 34.3802 31.8446 34.2861C31.5589 34.2065 31.2473 34.0937 30.9938 34.0018L29.7446 33.5497L29.7413 33.5517C29.6953 33.578 29.6491 33.6038 29.6027 33.6296L29.599 33.6316L29.4102 34.7257C29.3637 34.9966 29.3065 35.3289 29.2327 35.6209C29.1455 35.966 28.9938 36.439 28.6675 36.9181C28.2553 37.5236 27.6846 38.0042 27.0178 38.3076C26.4903 38.5476 25.9985 38.6168 25.6435 38.644C25.3431 38.6669 25.0061 38.6668 24.7311 38.6666H23.2687C22.9938 38.6668 22.6566 38.6669 22.3563 38.644C22.0014 38.6168 21.5095 38.5476 20.982 38.3076C20.3152 38.0042 19.7446 37.5236 19.3323 36.9181C19.0061 36.439 18.8543 35.966 18.7671 35.6209C18.6934 35.3289 18.6362 34.9966 18.5896 34.7257L18.4008 33.6316L18.3971 33.6296C18.3507 33.6038 18.3045 33.578 18.2585 33.5516L18.2551 33.5497L17.006 34.0018C16.7526 34.0936 16.441 34.2065 16.1553 34.2861C15.8171 34.3802 15.3394 34.4814 14.7711 34.4397C14.0515 34.3868 13.3595 34.1401 12.7686 33.7258C12.3021 33.3988 11.9961 33.0182 11.7938 32.7313C11.6228 32.489 11.4529 32.2045 11.3147 31.973L10.6455 30.8533C10.4992 30.6088 10.3208 30.3105 10.1831 30.033C10.0209 29.7062 9.82284 29.2337 9.76305 28.6392C9.68776 27.8904 9.82521 27.1356 10.1596 26.4614C10.4251 25.9261 10.7771 25.5537 11.044 25.3052C11.2707 25.094 11.5428 24.8778 11.7659 24.7005L12.6378 24.0072V23.9929L11.7659 23.2994C11.5427 23.1222 11.2707 22.906 11.044 22.6949C10.7771 22.4462 10.4251 22.0738 10.1595 21.5385C9.82516 20.8644 9.68771 20.1096 9.76299 19.3609C9.82277 18.7663 10.0209 18.2937 10.183 17.967C10.3207 17.6895 10.4992 17.3913 10.6454 17.1467L11.3147 16.027C11.4528 15.7956 11.6228 15.511 11.7937 15.2687C11.9961 14.9818 12.302 14.6013 12.7686 14.2742C13.3595 13.86 14.0514 13.6133 14.7711 13.5603C15.3394 13.5185 15.817 13.6197 16.1552 13.7139C16.4409 13.7935 16.7525 13.9064 17.0059 13.9982L18.2551 14.4503L18.2585 14.4484C18.3045 14.4221 18.3507 14.3961 18.3971 14.3705L18.4008 14.3684L18.5896 13.2743C18.6362 13.0033 18.6934 12.6711 18.7671 12.379C18.8543 12.034 19.0061 11.561 19.3323 11.0819C19.7446 10.4765 20.3152 9.99583 20.982 9.69247C21.5095 9.45246 22.0014 9.3833 22.3563 9.3561ZM26.7917 13.7817C26.6813 13.1418 26.6261 12.8218 26.4634 12.5829C26.3259 12.381 26.1358 12.2208 25.9135 12.1197C25.6503 12 25.3257 12 24.6763 12H23.3235C22.6742 12 22.3494 12 22.0863 12.1197C21.8641 12.2208 21.6739 12.381 21.5365 12.5829C21.3738 12.8218 21.3185 13.1418 21.2081 13.7817L21.0001 14.9875C20.9259 15.4178 20.8887 15.6329 20.8101 15.7982C20.7329 15.9606 20.6698 16.0494 20.5417 16.1755C20.4113 16.304 20.17 16.4374 19.6873 16.7043C19.6517 16.724 19.6163 16.7439 19.581 16.764C19.1193 17.0277 18.8885 17.1595 18.7171 17.2042C18.5487 17.248 18.4438 17.257 18.2704 17.2426C18.0939 17.2279 17.8961 17.1563 17.5006 17.0132L16.1492 16.5241C15.5502 16.3073 15.2507 16.1989 14.9668 16.2198C14.7269 16.2375 14.4963 16.3197 14.2993 16.4578C14.0662 16.6212 13.9028 16.8946 13.576 17.4414L12.9635 18.4662C12.6185 19.0434 12.446 19.3321 12.4163 19.6277C12.3912 19.8773 12.437 20.1288 12.5485 20.3536C12.6805 20.6197 12.9437 20.829 13.47 21.2476L14.4365 22.0162C14.7723 22.2832 14.9402 22.4168 15.0454 22.5598C15.1592 22.7146 15.2077 22.8152 15.258 23.0005C15.3045 23.172 15.3045 23.448 15.3045 24C15.3045 24.552 15.3045 24.828 15.258 24.9996C15.2077 25.1849 15.1592 25.2854 15.0454 25.4401C14.9402 25.5833 14.7723 25.7168 14.4365 25.9838L13.4701 26.7524C12.9437 27.171 12.6805 27.3802 12.5485 27.6465C12.4371 27.8712 12.3912 28.1228 12.4163 28.3724C12.4461 28.668 12.6186 28.9565 12.9636 29.5338L13.5761 30.5586C13.9029 31.1054 14.0662 31.3789 14.2993 31.5422C14.4963 31.6804 14.727 31.7625 14.9669 31.7802C15.2508 31.801 15.5503 31.6926 16.1492 31.476L17.5006 30.9869C17.8961 30.8437 18.0939 30.7721 18.2705 30.7574C18.4438 30.743 18.5487 30.752 18.7171 30.7958C18.8885 30.8405 19.1193 30.9724 19.581 31.236C19.6163 31.2561 19.6517 31.2761 19.6873 31.2957C20.17 31.5625 20.4113 31.696 20.5417 31.8245C20.6698 31.9506 20.7329 32.0394 20.8101 32.2018C20.8887 32.3672 20.9259 32.5822 21.0001 33.0125L21.2081 34.2182C21.3185 34.8582 21.3738 35.1782 21.5365 35.4172C21.6739 35.6189 21.8641 35.7792 22.0863 35.8802C22.3494 36 22.6742 36 23.3235 36H24.6763C25.3257 36 25.6503 36 25.9135 35.8802C26.1358 35.7792 26.3259 35.6189 26.4634 35.4172C26.6261 35.1782 26.6813 34.8582 26.7917 34.2182L26.9998 33.0125C27.0739 32.5822 27.1111 32.3672 27.1897 32.2018C27.2669 32.0394 27.3301 31.9506 27.4581 31.8245C27.5886 31.696 27.8299 31.5625 28.3125 31.2957C28.3481 31.2761 28.3835 31.2561 28.4187 31.236C28.8805 30.9724 29.1113 30.8405 29.2827 30.7958C29.4511 30.752 29.5559 30.743 29.7294 30.7574C29.9059 30.7721 30.1037 30.8437 30.4991 30.9869L31.8506 31.476C32.4495 31.6928 32.7491 31.8012 33.033 31.7802C33.2729 31.7625 33.5035 31.6804 33.7005 31.5422C33.9335 31.3789 34.097 31.1054 34.4238 30.5586L35.0363 29.5338C35.3813 28.9566 35.5538 28.668 35.5835 28.3724C35.6086 28.1228 35.5627 27.8712 35.4513 27.6465C35.3193 27.3804 35.0561 27.171 34.5298 26.7524L33.5634 25.9838C33.2275 25.7168 33.0597 25.5833 32.9545 25.4401C32.8407 25.2854 32.7922 25.1849 32.7418 24.9996C32.6953 24.8281 32.6953 24.552 32.6953 24C32.6953 23.448 32.6953 23.172 32.7418 23.0005C32.7922 22.8152 32.8407 22.7146 32.9545 22.5598C33.0597 22.4168 33.2275 22.2832 33.5633 22.0162L34.5298 21.2476C35.0562 20.829 35.3194 20.6197 35.4514 20.3535C35.5629 20.1288 35.6086 19.8772 35.5835 19.6277C35.5538 19.3321 35.3814 19.0434 35.0363 18.4662L34.4238 17.4413C34.097 16.8946 33.9337 16.6212 33.7006 16.4577C33.5035 16.3197 33.273 16.2374 33.033 16.2198C32.7491 16.1989 32.4497 16.3073 31.8506 16.5241L30.4993 17.0132C30.1037 17.1563 29.9059 17.2279 29.7294 17.2426C29.5559 17.257 29.4511 17.248 29.2827 17.2042C29.1113 17.1595 28.8805 17.0277 28.4189 16.764C28.3835 16.7439 28.3481 16.724 28.3126 16.7043C27.8299 16.4374 27.5886 16.304 27.4581 16.1755C27.3301 16.0494 27.2669 15.9606 27.1897 15.7982C27.1111 15.6329 27.0739 15.4177 26.9998 14.9875L26.7917 13.7817Z" fill="white"/>
</svg>
